HIERARCHY
ROOT reference
{
  OFFSET 0 0 0
  CHANNELS 6 Xposition Yposition Zposition Zrotation Xrotation Yrotation
  JOINT Hips
  {
    OFFSET 44.6805 85.9651 -20.1189
    CHANNELS 3 Zrotation Xrotation Yrotation
    JOINT RightUpLeg
    {
      OFFSET -9.20028 -1.61905 0.0313892
      CHANNELS 3 Zrotation Xrotation Yrotation
      JOINT RightLeg
      {
        OFFSET 0.0920446 -41.8676 0.113709
        CHANNELS 3 Zrotation Xrotation Yrotation
        JOINT RightFoot
        {
          OFFSET -0.78009 -42.2818 -0.985537
          CHANNELS 3 Zrotation Xrotation Yrotation
          End Site
          {
            OFFSET 0 -7.69 17.5
          }
        }
      }
    }
    JOINT LeftUpLeg
    {
      OFFSET 9.33559 -1.63058 -0.0435578
      CHANNELS 3 Zrotation Xrotation Yrotation
      JOINT LeftLeg
      {
        OFFSET 0.124601 -41.8685 -0.0153308
        CHANNELS 3 Zrotation Xrotation Yrotation
        JOINT LeftFoot
        {
          OFFSET -0.885525 -42.178 -0.480441
          CHANNELS 3 Zrotation Xrotation Yrotation
          End Site
          {
            OFFSET 0 -7.69 17.5
          }
        }
      }
    }
    JOINT Spine
    {
      OFFSET -0.030151 14.2977 0.0632059
      CHANNELS 3 Zrotation Xrotation Yrotation
      JOINT Spine1
      {
        OFFSET -0.0449239 9.71163 -4.69081e-05
        CHANNELS 3 Zrotation Xrotation Yrotation
        JOINT Spine2
        {
          OFFSET 0.0275009 10.1133 -0.0283136
          CHANNELS 3 Zrotation Xrotation Yrotation
          JOINT Spine3
          {
            OFFSET 0.0288761 9.7229 -0.000806902
            CHANNELS 3 Zrotation Xrotation Yrotation
            JOINT Neck
            {
              OFFSET -0.0518603 10.2949 0.241895
              CHANNELS 3 Zrotation Xrotation Yrotation
              JOINT Head
              {
                OFFSET -0.275401 9.55953 0.0709142
                CHANNELS 3 Zrotation Xrotation Yrotation
                End Site
                {
                  OFFSET 0 15.95 0
                }
              }
            }
            JOINT RightShoulder
            {
              OFFSET -3.17286 6.95881 0.00543218
              CHANNELS 3 Zrotation Xrotation Yrotation
              JOINT RightArm
              {
                OFFSET -12.7612 0.039846 0.0411956
                CHANNELS 3 Zrotation Xrotation Yrotation
                JOINT RightForeArm
                {
                  OFFSET -26.5517 0.0729849 0.08211
                  CHANNELS 3 Zrotation Xrotation Yrotation
                  JOINT RightHand
                  {
                    OFFSET -26.0042 -0.0197864 0.0403594
                    CHANNELS 3 Zrotation Xrotation Yrotation
                    JOINT RightHandThumb1
                    {
                      OFFSET -2.48905 0.190105 3.12053
                      CHANNELS 3 Zrotation Xrotation Yrotation
                      JOINT RightHandThumb2
                      {
                        OFFSET -3.68274 0 0
                        CHANNELS 3 Zrotation Xrotation Yrotation
                        JOINT RightHandThumb3
                        {
                          OFFSET -2.55832 0 0
                          CHANNELS 3 Zrotation Xrotation Yrotation
                          End Site
                          {
                            OFFSET -2.194 0 0
                          }
                        }
                      }
                    }
                    JOINT RightInHandIndex
                    {
                      OFFSET -3.22368 0.508421 1.97842
                      CHANNELS 3 Zrotation Xrotation Yrotation
                      JOINT RightHandIndex1
                      {
                        OFFSET -5.21684 -0.091368 0.999158
                        CHANNELS 3 Zrotation Xrotation Yrotation
                        JOINT RightHandIndex2
                        {
                          OFFSET -3.61937 0 0
                          CHANNELS 3 Zrotation Xrotation Yrotation
                          JOINT RightHandIndex3
                          {
                            OFFSET -2.0521 0 0
                            CHANNELS 3 Zrotation Xrotation Yrotation
                            End Site
                            {
                              OFFSET -1.805 0 0
                            }
                          }
                        }
                      }
                    }
                    JOINT RightInHandMiddle
                    {
                      OFFSET -3.38211 0.517263 0.756737
                      CHANNELS 3 Zrotation Xrotation Yrotation
                      JOINT RightHandMiddle1
                      {
                        OFFSET -5.17411 -0.084 0.313895
                        CHANNELS 3 Zrotation Xrotation Yrotation
                        JOINT RightHandMiddle2
                        {
                          OFFSET -3.94947 0 0
                          CHANNELS 3 Zrotation Xrotation Yrotation
                          JOINT RightHandMiddle3
                          {
                            OFFSET -2.47579 0 0
                            CHANNELS 3 Zrotation Xrotation Yrotation
                            End Site
                            {
                              OFFSET -1.975 0 0
                            }
                          }
                        }
                      }
                    }
                    JOINT RightInHandRing
                    {
                      OFFSET -3.36516 0.537895 -0.128947
                      CHANNELS 3 Zrotation Xrotation Yrotation
                      JOINT RightHandRing1
                      {
                        OFFSET -4.63474 -0.022105 -0.478947
                        CHANNELS 3 Zrotation Xrotation Yrotation
                        JOINT RightHandRing2
                        {
                          OFFSET -3.44238 0 0
                          CHANNELS 3 Zrotation Xrotation Yrotation
                          JOINT RightHandRing3
                          {
                            OFFSET -2.3881 0 0
                            CHANNELS 3 Zrotation Xrotation Yrotation
                            End Site
                            {
                              OFFSET -1.857 0 0
                            }
                          }
                        }
                      }
                    }
                    JOINT RightInHandPinky
                    {
                      OFFSET -3.16105 0.469368 -1.20179
                      CHANNELS 3 Zrotation Xrotation Yrotation
                      JOINT RightHandPinky1
                      {
                        OFFSET -4.14105 -0.022105 -1.09053
                        CHANNELS 3 Zrotation Xrotation Yrotation
                        JOINT RightHandPinky2
                        {
                          OFFSET -2.75653 0 0
                          CHANNELS 3 Zrotation Xrotation Yrotation
                          JOINT RightHandPinky3
                          {
                            OFFSET -1.74189 0 0
                            CHANNELS 3 Zrotation Xrotation Yrotation
                            End Site
                            {
                              OFFSET -1.645 0 0
                            }
                          }
                        }
                      }
                    }
                  }
                }
              }
            }
            JOINT LeftShoulder
            {
              OFFSET 3.22572 6.89245 -0.0537601
              CHANNELS 3 Zrotation Xrotation Yrotation
              JOINT LeftArm
              {
                OFFSET 12.8183 -0.0506887 -0.111983
                CHANNELS 3 Zrotation Xrotation Yrotation
                JOINT LeftForeArm
                {
                  OFFSET 26.4786 -0.0502099 0.0159937
                  CHANNELS 3 Zrotation Xrotation Yrotation
                  JOINT LeftHand
                  {
                    OFFSET 25.8931 -0.161185 0.0946899
                    CHANNELS 3 Zrotation Xrotation Yrotation
                    JOINT LeftHandThumb1
                    {
                      OFFSET 2.48905 0.190105 3.12053
                      CHANNELS 3 Zrotation Xrotation Yrotation
                      JOINT LeftHandThumb2
                      {
                        OFFSET 3.68274 0 0
                        CHANNELS 3 Zrotation Xrotation Yrotation
                        JOINT LeftHandThumb3
                        {
                          OFFSET 2.55832 0 0
                          CHANNELS 3 Zrotation Xrotation Yrotation
                          End Site
                          {
                            OFFSET 2.194 0 0
                          }
                        }
                      }
                    }
                    JOINT LeftInHandIndex
                    {
                      OFFSET 3.22368 0.508421 1.97842
                      CHANNELS 3 Zrotation Xrotation Yrotation
                      JOINT LeftHandIndex1
                      {
                        OFFSET 5.21684 -0.091368 0.999158
                        CHANNELS 3 Zrotation Xrotation Yrotation
                        JOINT LeftHandIndex2
                        {
                          OFFSET 3.61937 0 0
                          CHANNELS 3 Zrotation Xrotation Yrotation
                          JOINT LeftHandIndex3
                          {
                            OFFSET 2.0521 0 0
                            CHANNELS 3 Zrotation Xrotation Yrotation
                            End Site
                            {
                              OFFSET 1.805 0 0
                            }
                          }
                        }
                      }
                    }
                    JOINT LeftInHandMiddle
                    {
                      OFFSET 3.38211 0.517263 0.756737
                      CHANNELS 3 Zrotation Xrotation Yrotation
                      JOINT LeftHandMiddle1
                      {
                        OFFSET 5.17411 -0.084 0.313895
                        CHANNELS 3 Zrotation Xrotation Yrotation
                        JOINT LeftHandMiddle2
                        {
                          OFFSET 3.94947 0 0
                          CHANNELS 3 Zrotation Xrotation Yrotation
                          JOINT LeftHandMiddle3
                          {
                            OFFSET 2.47579 0 0
                            CHANNELS 3 Zrotation Xrotation Yrotation
                            End Site
                            {
                              OFFSET 1.975 0 0
                            }
                          }
                        }
                      }
                    }
                    JOINT LeftInHandRing
                    {
                      OFFSET 3.36516 0.537895 -0.128947
                      CHANNELS 3 Zrotation Xrotation Yrotation
                      JOINT LeftHandRing1
                      {
                        OFFSET 4.63474 -0.022105 -0.478947
                        CHANNELS 3 Zrotation Xrotation Yrotation
                        JOINT LeftHandRing2
                        {
                          OFFSET 3.44238 0 0
                          CHANNELS 3 Zrotation Xrotation Yrotation
                          JOINT LeftHandRing3
                          {
                            OFFSET 2.3881 0 0
                            CHANNELS 3 Zrotation Xrotation Yrotation
                            End Site
                            {
                              OFFSET 1.857 0 0
                            }
                          }
                        }
                      }
                    }
                    JOINT LeftInHandPinky
                    {
                      OFFSET 3.16105 0.469368 -1.20179
                      CHANNELS 3 Zrotation Xrotation Yrotation
                      JOINT LeftHandPinky1
                      {
                        OFFSET 4.14105 -0.022105 -1.09053
                        CHANNELS 3 Zrotation Xrotation Yrotation
                        JOINT LeftHandPinky2
                        {
                          OFFSET 2.75653 0 0
                          CHANNELS 3 Zrotation Xrotation Yrotation
                          JOINT LeftHandPinky3
                          {
                            OFFSET 1.74189 0 0
                            CHANNELS 3 Zrotation Xrotation Yrotation
                            End Site
                            {
                              OFFSET 1.645 0 0
                            }
                          }
                        }
                      }
                    }
                  }
                }
              }
            }
          }
        }
      }
    }
  }
}
MOTION
Frames: 2
Frame Time: 0.00833333
4.500000000000000000e+02 0.000000000000000000e+00 0.000000000000000000e+00 0.000000000000000000e+00 0.000000000000000000e+00 0.000000000000000000e+00 6.308438372974070063e-01 4.464398144003218216e-01 5.655128892904370819e-01 9.571841749458329107e-02 -3.509271219929877561e-01 -5.750582976079143815e-01 -8.072449689077452195e-01 1.173026778110011437e+00 9.649235069429964451e-01 7.208858260858065359e-01 -1.089914554876888042e+00 -1.017723225705622569e+00 -9.099868150609243811e-01 -1.044301053700927850e+00 -1.791694507143678505e+00 1.924672951589434966e+00 8.699051237034513551e-02 -9.148203633486108322e-01 8.865475729055135590e-01 -6.916870380095881954e-01 1.714395556409072707e+00 4.233276060474944757e-01 1.771644491493224727e-01 -5.724622783948222215e-01 7.226703200170084274e-02 2.449420341701443737e-01 -1.140282263286310077e-01 1.584660426414708501e-01 -1.680517737716027138e-01 -3.349245850622492027e-01 2.324258290750645661e-02 -1.841723251529776839e-02 4.056737108434842198e-02 -2.382095161582915122e+00 -5.727396550251628859e-01 -7.804311035772806271e-01 -8.741891825979071218e-01 1.104051271802709705e-01 7.447808804474913558e-01 2.831674960167427368e-01 -6.811768987376128903e-01 -8.395776446136704596e-03 -7.133720697248830955e-01 1.712449983008201171e+00 1.319867113521201174e-01 1.087245557003380867e+02 4.404142048130418097e+00 -1.023520214683906175e+02 2.325615138227759282e-01 -8.590113831166389102e-03 -2.311243757788961961e+00 0.000000000000000000e+00 0.000000000000000000e+00 0.000000000000000000e+00 -4.590507615896320480e-15 7.218566848355984534e-15 0.000000000000000000e+00 -3.928583777288011125e-15 3.857201650878126177e-15 0.000000000000000000e+00 -9.183986014163083951e-16 -4.618584681525661079e-15 9.795621305576989205e-16 0.000000000000000000e+00 0.000000000000000000e+00 0.000000000000000000e+00 0.000000000000000000e+00 1.298931747358637770e-15 -5.908051569503968938e-15 0.000000000000000000e+00 -1.766292377599261695e-15 -9.227988291925501992e-15 -9.183986014163083951e-16 -4.618584681525661079e-15 9.795621305576989205e-16 0.000000000000000000e+00 -4.567558189321491212e-15 8.780764815976135144e-15 0.000000000000000000e+00 1.219906437623603250e-15 8.285293455289724498e-16 0.000000000000000000e+00 -2.724219570578003511e-15 -1.552876463380484129e-14 -9.183986014163083951e-16 -4.618584681525661079e-15 9.795621305576989205e-16 0.000000000000000000e+00 0.000000000000000000e+00 0.000000000000000000e+00 0.000000000000000000e+00 5.203319026833368645e-16 1.226130311305351027e-15 0.000000000000000000e+00 -4.034050839078557602e-15 -1.022134729018130077e-14 -9.183986014163083951e-16 -4.618584681525661079e-15 9.795621305576989205e-16 0.000000000000000000e+00 0.000000000000000000e+00 0.000000000000000000e+00 0.000000000000000000e+00 1.833260849404517774e-16 -1.246852232316014098e-15 0.000000000000000000e+00 -5.162060857541455777e-15 -2.934964883872118959e-14 3.637408065219458614e-02 4.962890786887191874e-01 7.705586446289547364e-01 6.109253795675702037e-01 -1.795925249626744158e-01 -9.420923949984819634e-01 -8.999357772396350263e-01 -2.831877066584006730e+00 3.512305033278372512e+00 3.549766029590578853e+01 -1.068444859133384384e+00 3.003426630956965582e+01 0.000000000000000000e+00 0.000000000000000000e+00 0.000000000000000000e+00 1.326707041409113596e-15 4.170636656914498437e-16 0.000000000000000000e+00 -1.319596538316325549e-14 -3.971602930087067714e-15 0.000000000000000000e+00 -2.409111724502587995e-15 3.610289043838371466e-15 2.892455414089093345e-15 0.000000000000000000e+00 0.000000000000000000e+00 0.000000000000000000e+00 0.000000000000000000e+00 2.676717057809366767e-15 1.787308961226297803e-14 0.000000000000000000e+00 4.046790096394709645e-15 -1.331537371437404615e-14 -2.409111724502587995e-15 3.610289043838371466e-15 2.892455414089093345e-15 0.000000000000000000e+00 -1.022736781204905276e-15 -7.618039866015934770e-16 0.000000000000000000e+00 -5.221637908884576480e-16 -7.959496738172936867e-16 0.000000000000000000e+00 1.807493826305139418e-15 -1.117236151562240622e-14 -2.409111724502587995e-15 3.610289043838371466e-15 2.892455414089093345e-15 0.000000000000000000e+00 0.000000000000000000e+00 0.000000000000000000e+00 0.000000000000000000e+00 -1.896518944919503699e-14 9.002776885737409993e-14 0.000000000000000000e+00 1.236321457182673872e-15 -1.094477776801362924e-14 -2.409111724502587995e-15 3.610289043838371466e-15 2.892455414089093345e-15 0.000000000000000000e+00 0.000000000000000000e+00 0.000000000000000000e+00 0.000000000000000000e+00 -2.661073674438632970e-15 -6.725219941512049991e-15 0.000000000000000000e+00 4.735373131861708285e-16 -1.907440974713235562e-14
4.500000000000000000e+02 0.000000000000000000e+00 0.000000000000000000e+00 0.000000000000000000e+00 0.000000000000000000e+00 0.000000000000000000e+00 6.256455930995336034e-01 4.544010292093648706e-01 5.101009247067628261e-01 1.485297376321609575e-01 -3.225580690775849968e-01 -5.507107530736836676e-01 -8.091042596868353032e-01 1.175818319435055326e+00 9.781345774820964234e-01 7.144673661371715445e-01 -1.082918308939255336e+00 -9.809741282873281065e-01 -8.839170998648381294e-01 -9.986886685077842607e-01 -1.797038290012695994e+00 1.912696226607944805e+00 7.127649127900995141e-02 -8.570968368377221980e-01 8.805849644197067949e-01 -6.472939980691353457e-01 1.718545419181434220e+00 4.119038348150036444e-01 1.641223332815285318e-01 -6.039192830101199894e-01 7.272604172593571947e-02 1.805629607797435976e-01 -1.357497491032507719e-01 1.510322982497128985e-01 -1.204066711196203621e-01 -3.375612848374411334e-01 2.606165582290097607e-02 -2.185199472920344027e-02 3.956159091587228838e-02 -2.316709186233811835e+00 -6.843092357053697228e-01 -6.934865793911166865e-01 -8.540779012088371980e-01 1.046884718748067600e-01 8.001039327473356000e-01 3.034017742392804973e-01 -6.619731917670617083e-01 3.304497995611269112e-02 -6.725559323526628663e-01 1.665028661604995408e+00 1.384109499933199039e-01 1.090605769116898358e+02 4.389443447508978302e+00 -1.006782531874375053e+02 2.473316356434711039e-01 -1.246748141530940601e-01 -2.246643888203855077e+00 0.000000000000000000e+00 0.000000000000000000e+00 0.000000000000000000e+00 -5.524136667170787908e-15 8.005611042859564128e-15 0.000000000000000000e+00 -5.248027993618679873e-15 4.383812618394166397e-15 0.000000000000000000e+00 -9.053430009022542243e-16 -4.768105780122731036e-15 1.364236095091564831e-15 0.000000000000000000e+00 0.000000000000000000e+00 0.000000000000000000e+00 0.000000000000000000e+00 8.438728628055458670e-16 -7.034863349521810938e-15 0.000000000000000000e+00 -1.823655534376706948e-15 -9.797145368195663203e-15 -9.053430009022542243e-16 -4.768105780122731036e-15 1.364236095091564831e-15 0.000000000000000000e+00 -4.853713030670646139e-15 8.252724972451487436e-15 0.000000000000000000e+00 8.803268176966157215e-16 1.916466439907407855e-15 0.000000000000000000e+00 -2.893794746034913688e-15 -1.663286707414212931e-14 -9.053430009022542243e-16 -4.768105780122731036e-15 1.364236095091564831e-15 0.000000000000000000e+00 0.000000000000000000e+00 0.000000000000000000e+00 0.000000000000000000e+00 6.693998836092361651e-16 1.644855204233254953e-15 0.000000000000000000e+00 -4.200871556143509575e-15 -9.061258471415368243e-15 -9.053430009022542243e-16 -4.768105780122731036e-15 1.364236095091564831e-15 0.000000000000000000e+00 0.000000000000000000e+00 0.000000000000000000e+00 0.000000000000000000e+00 4.564077797785646341e-16 -1.781567175188164223e-15 0.000000000000000000e+00 -5.126724001414162427e-15 -3.040718700858579321e-14 5.711897262431626932e-02 4.692526433577638434e-01 8.343533553917027445e-01 6.566782899128071893e-01 -1.916018272619839369e-01 -9.999394698492889422e-01 -9.823866741254994039e-01 -2.671559655000672162e+00 3.439718897634530315e+00 3.619975211826079686e+01 -9.015838943511942372e-01 3.066173543953448544e+01 0.000000000000000000e+00 0.000000000000000000e+00 0.000000000000000000e+00 3.246972127661531888e-15 1.260733831880907856e-15 0.000000000000000000e+00 -1.352585321983037646e-14 -4.261928395520834868e-15 0.000000000000000000e+00 -3.672998278035556329e-15 3.329503254515857891e-15 2.755381906561358734e-15 0.000000000000000000e+00 0.000000000000000000e+00 0.000000000000000000e+00 0.000000000000000000e+00 2.876198303086708974e-15 1.731692315446511917e-14 0.000000000000000000e+00 3.715540840467255991e-15 -1.078320221494698635e-14 -3.672998278035556329e-15 3.329503254515857891e-15 2.755381906561358734e-15 0.000000000000000000e+00 -9.887178241951520575e-16 -1.498723888052304510e-15 0.000000000000000000e+00 -9.376229727569311055e-16 -1.060640720695516456e-15 0.000000000000000000e+00 1.583632816757740800e-15 -1.165002623719687861e-14 -3.672998278035556329e-15 3.329503254515857891e-15 2.755381906561358734e-15 0.000000000000000000e+00 0.000000000000000000e+00 0.000000000000000000e+00 0.000000000000000000e+00 -1.908327669763191465e-14 8.925208284451132082e-14 0.000000000000000000e+00 1.065761930803665294e-15 -1.018313065395568320e-14 -3.672998278035556329e-15 3.329503254515857891e-15 2.755381906561358734e-15 0.000000000000000000e+00 0.000000000000000000e+00 0.000000000000000000e+00 0.000000000000000000e+00 -2.178083157816111068e-15 -7.025909583326561642e-15 0.000000000000000000e+00 6.471943792535685418e-16 -1.898353419326163483e-14
